<svg width="179" height="121" viewBox="0 0 179 121" fill="none" xmlns="http://www.w3.org/2000/svg">
<path d="M63.744 94.272V31.68C62.144 31.68 60.928 31.808 60.096 32.064C59.328 32.256 58.752 32.704 58.368 33.408C58.048 34.112 57.696 35.264 57.312 36.864L44.736 86.688C44.352 88.16 43.104 88.896 40.992 88.896C38.88 88.896 37.632 88.16 37.248 86.688L24.672 36.864C24.288 35.264 23.904 34.112 23.52 33.408C23.2 32.64 22.656 32.16 21.888 31.968C21.12 31.776 19.904 31.68 18.24 31.68V94.272C18.24 95.744 16.96 96.48 14.4 96.48C11.84 96.48 10.56 95.744 10.56 94.272V31.872C10.56 29.056 10.944 27.2 11.712 26.304C12.48 25.408 14.016 24.96 16.32 24.96H18.432C21.504 24.96 23.84 25.184 25.44 25.632C27.104 26.016 28.32 26.88 29.088 28.224C29.92 29.504 30.656 31.488 31.296 34.176L40.992 74.016L50.688 34.176C51.328 31.488 52.032 29.504 52.8 28.224C53.632 26.88 54.848 26.016 56.448 25.632C58.112 25.184 60.48 24.96 63.552 24.96H65.664C68.032 24.96 69.568 25.44 70.272 26.4C71.04 27.296 71.424 29.216 71.424 32.16V94.272C71.424 95.744 70.144 96.48 67.584 96.48C65.024 96.48 63.744 95.744 63.744 94.272ZM97.2975 96.48C94.7375 96.48 93.4575 95.744 93.4575 94.272V26.688C93.4575 25.216 94.7375 24.48 97.2975 24.48C99.8575 24.48 101.138 25.216 101.138 26.688V94.272C101.138 95.744 99.8575 96.48 97.2975 96.48ZM123.248 88.8V32.16C123.248 29.216 123.6 27.296 124.304 26.4C125.072 25.44 126.64 24.96 129.008 24.96H148.976C155.568 24.96 160.336 26.176 163.28 28.608C166.224 30.976 167.696 34.816 167.696 40.128V80.832C167.696 86.144 166.224 90.016 163.28 92.448C160.336 94.816 155.568 96 148.976 96H129.008C126.64 96 125.072 95.552 124.304 94.656C123.6 93.696 123.248 91.744 123.248 88.8ZM130.928 89.28H148.976C153.136 89.28 156.016 88.736 157.616 87.648C159.216 86.496 160.016 84.544 160.016 81.792V39.168C160.016 36.352 159.216 34.4 157.616 33.312C156.016 32.224 153.136 31.68 148.976 31.68H130.928V89.28Z" fill="#0078B2"/>
</svg>
